<svg xmlns="http://www.w3.org/2000/svg" width="54.125" height="54.12"><path d="M53.156 15.02a1.2 1.2 0 00.48-2.15c-1.452-1.06-3.319-2.1-4.717-1.79l2.9-7.22a1.2 1.2 0 00-1.561-1.56l-7.224 2.9c.312-1.4-.733-3.26-1.789-4.71a1.2 1.2 0 00-2.148.48 39.19 39.19 0 01-2.634 7.89 12.74 12.74 0 012.172 1.75l4.873 4.87a13.05 13.05 0 011.758 2.17 38.959 38.959 0 017.89-2.63zm-11.27 2.09l-4.872-4.88a10.734 10.734 0 00-16.946 2.34l-5.352 9.51 5.808 9.57-8.347-5.06L.404 49.53a3.081 3.081 0 002.658 4.59 3.147 3.147 0 001.518-.41l9.151-5.14-3.072-5.7 6.745 3.64L36.21 35.94l-5.161-9.01 10.279 5.89a10.749 10.749 0 00.558-15.71z" fill="#262626" fill-rule="evenodd"/></svg>