<svg xmlns="http://www.w3.org/2000/svg" width="53.688" height="47.62"><path d="M29.629 16.04a11.981 11.981 0 00.878-3.92A12.5 12.5 0 0027.94 3.8 10.59 10.59 0 0024.647.93a7.054 7.054 0 00-3.363-.92 3.494 3.494 0 00-1.031.17c-.225.07-.345.11-.345.11s.029.12.074.35c.048.21.054.58.088.92a20.908 20.908 0 01-.133 2.65 16.774 16.774 0 00.584 6.46 15.206 15.206 0 001.418 3.26 17.29 17.29 0 002.02 2.81c.655.72 2.133 2.41 2.669 2.83a24.685 24.685 0 00.276-2.92c.056-.7.01-1.39 0-2.08s-.136-1.35-.194-2c-.116-.64-.274-1.25-.4-1.84q-.311-.84-.577-1.59c-.251-.46-.48-.88-.683-1.26a5.138 5.138 0 00-.643-.89c-.385-.49-.606-.76-.606-.76s.241.25.658.71a5.331 5.331 0 01.718.86c.234.37.5.78.787 1.23.22.49.457 1.02.71 1.58.174.59.38 1.21.548 1.86.109.66.287 1.34.351 2.04s.164 1.42.159 2.14c.031.81.018 1.62-.019 2.41a2.7 2.7 0 00.2-.2 10.677 10.677 0 001.716-2.82zm-6.389 5.95c.107.18.2.34.3.52a15.12 15.12 0 00-11.477 10.01l.357.04a15.364 15.364 0 012.281.32 1.76 1.76 0 01.359-.96 4.334 4.334 0 013.6-1.73 24.147 24.147 0 017.047.8 5.7 5.7 0 003.891-.22c3.8-1.52 7.136-1.38 9.832.38.333.22.68.45 1.031.69a15.144 15.144 0 00-11.624-9.41c.145-.25.284-.51.445-.77a2.876 2.876 0 00.406-1.03 2.114 2.114 0 01-.016-.28c-.542.68-1.028 1.37-1.457 2.02-.264-.03-.535-.04-.8-.06.138-1.02.253-2.11.307-3.25a2.74 2.74 0 01-.257.26 3.793 3.793 0 00-.5 1.39c-.094.53-.2 1.04-.306 1.54-.094 0-.181-.02-.274-.02a15.564 15.564 0 00-2.279.17 27.26 27.26 0 00-1.252-1.72 1.883 1.883 0 01-.017.27 2.829 2.829 0 00.407 1.04zm8.769-4.16c.388-.37.828-.67 1.218-.99.419-.29.847-.54 1.237-.79q.639-.285 1.193-.54c.389-.12.747-.22 1.063-.31a3.626 3.626 0 01.836-.14l.732-.08s-.264.05-.725.13a3.85 3.85 0 00-.811.2c-.3.11-.646.24-1.018.37-.345.19-.722.4-1.118.62-.368.27-.761.54-1.144.85-.361.34-.761.66-1.109 1.05a14.44 14.44 0 00-1.038 1.18 18.441 18.441 0 00-1.3 1.8c.519.02 2.2-.2 2.932-.29a12.24 12.24 0 002.553-.59 11.69 11.69 0 002.43-1.15 12.651 12.651 0 003.554-3.39 15.4 15.4 0 011.241-1.57c.187-.18.375-.39.509-.49s.216-.15.216-.15-.048-.09-.139-.25a2.588 2.588 0 00-.506-.6 5.29 5.29 0 00-2.375-1.15 7.993 7.993 0 00-3.3-.01 9.446 9.446 0 00-7.059 6.13 8.011 8.011 0 00-.425 2.47c0 .07.009.14.013.21.375-.47.77-.93 1.192-1.39.347-.4.763-.76 1.148-1.13zm-22.23-3.31a15.689 15.689 0 011.239 1.57 12.777 12.777 0 003.554 3.39 11.611 11.611 0 002.432 1.15 12.191 12.191 0 002.549.59c.736.09 2.416.31 2.933.29a17.927 17.927 0 00-1.3-1.81c-.315-.42-.688-.79-1.035-1.18s-.75-.7-1.108-1.04c-.385-.31-.781-.58-1.146-.85-.395-.22-.773-.43-1.118-.62-.373-.14-.715-.26-1.017-.38a4.471 4.471 0 00-.813-.19c-.461-.08-.722-.13-.722-.13l.73.08a4.177 4.177 0 01.837.13c.315.09.671.2 1.061.31.371.17.77.36 1.194.55.391.25.817.5 1.238.79.391.32.83.62 1.217.99s.8.72 1.154 1.13c.422.45.817.92 1.192 1.39 0-.07.017-.14.013-.22a7.942 7.942 0 00-.425-2.46 8.884 8.884 0 00-1.452-2.66 9.456 9.456 0 00-5.608-3.47 8 8 0 00-3.3 0 5.408 5.408 0 00-2.376 1.16 2.6 2.6 0 00-.507.6c-.089.16-.138.24-.138.24s.074.06.214.16.32.31.508.49zm36.935 25.09a31.982 31.982 0 00-8.566-7.59c-2.6-1.69-5.561-1.33-8.318-.22a7.405 7.405 0 01-4.985.26 22.747 22.747 0 00-6.555-.73 2.729 2.729 0 00-2.3 1.07c-.315.42 2.266 2.15 4.48 2.15-.411.82-7.567-.92-8.521-.85l-5.413-.69c-1.924-.16-1.921-.88-3.814.18a.465.465 0 01-.236.04 2.4 2.4 0 00-2.232.97 1.291 1.291 0 00-.131 1.36 1.267 1.267 0 001.07.52 36.883 36.883 0 006.484 2.24c2.335.58 4.61 1.28 6.942 1.81a10.158 10.158 0 012.813.87 10.658 10.658 0 005.92 1.26c2.395-.11 4.795-.01 7.2-.03a10.253 10.253 0 019.577 5.38l13.548-.03c-2.958-3.46-4.263-4.3-6.963-7.97z" fill="#262626" fill-rule="evenodd"/></svg>